{"title":"Jean-Luc Godard's Vivre sa vie (1962) - 1080p BDRip x265 HEVC Re","uid":13393244,"size":990293635,"categoryP":"video","categoryS":"hd___movies","magnet":"?xt=urn:btih:48bf90199677cd2221bc4cfa4000602bedff4ff3&amp;dn=Jean-Luc+Godard%27s+Vivre+sa+vie+%281962%29+-+1080p+BDRip+x265+HEVC+Re&amp;tr=udp%3A%2F%2Ftracker.leechers-paradise.org%3A6969&amp;tr=udp%3A%2F%2Fzer0day.ch%3A1337&amp;tr=udp%3A%2F%2Fopen.demonii.com%3A1337&amp;tr=udp%3A%2F%2Ftracker.coppersurfer.tk%3A6969&amp;tr=udp%3A%2F%2Fexodus.desync.com%3A6969","seeders":3,"leechers":1,"uploader":"BRSHNKV","files":1,"time":1454354355,"description":"Twelve episodic tales in the life of a Parisian woman and her slow descent into prostitution.\r\n\r\nTechnical:\r\n\r\nFormat : MPEG-4\r\nFormat profile : Base Media / Version 2\r\nCodec ID : mp42\r\nFile size : 944 MiB\r\nDuration : 1h 23mn\r\nOverall bit rate mode : Variable\r\nOverall bit rate : 1 575 Kbps\r\nEncoded date : UTC 2016-01-31 22:33:41\r\nTagged date : UTC 2016-01-31 22:33:41\r\nWriting application : HandBrake 0.10.2 2015061100\r\n\r\nVideo\r\nID : 1\r\nFormat : HEVC\r\nFormat/Info : High Efficiency Video Coding\r\nFormat profile :   @Main\r\nCodec ID : hev1\r\nCodec ID/Info : High Efficiency Video Coding\r\nDuration : 1h 23mn\r\nBit rate : 1 401 Kbps\r\nWidth : 1 920 pixels\r\nHeight : 1 080 pixels\r\nDisplay aspect ratio : 16:9\r\nFrame rate mode : Variable\r\nFrame rate : 23.976 fps\r\nMinimum frame rate : 23.974 fps\r\nMaximum frame rate : 23.981 fps\r\nColor space : YUV\r\nChroma subsampling : 4:2:0\r\nBit depth : 8 bits\r\nBits/(Pixel*Frame) : 0.028\r\nStream size : 840 MiB (89%)\r\nWriting library : x265 1.5:[Mac OS X][clang 6.1.0][64 bit]\r\nEncoding settings : wpp / ctu=64 / tu-intra-depth=1 / tu-inter-depth=1 / me=1 / subme=2 / merange=57 / no-rect / no-amp / max-merge=2 / temporal-mvp / no-early-skip / no-fast-cbf / rdpenalty=0 / no-tskip / no-tskip-fast / strong-intra-smoothing / no-lossless / no-cu-lossless / no-constrained-intra / no-fast-intra / open-gop / interlace=0 / keyint=240 / min-keyint=24 / scenecut=40 / rc-lookahead=20 / bframes=4 / bframe-bias=0 / b-adapt=2 / ref=3 / weightp / no-weightb / aq-mode=1 / aq-strength=1.00 / cbqpoffs=0 / crqpoffs=0 / rd=3 / psy-rd=0.30 / psy-rdoq=0.00 / signhide / lft / sao / no-sao-non-deblock / b-pyramid / cutree / rc=2 / pass / bitrate=1400 / qcomp=0.60 / qpmin=0 / qpmax=51 / qpstep=4 / cplxblur=20.0 / qblur=0.5 / ipratio=1.40 / pbratio=1.30\r\nEncoded date : UTC 2016-01-31 22:33:41\r\nTagged date : UTC 2016-01-31 22:33:41\r\nColor range : Limited\r\nColor primaries : BT.709\r\nTransfer characteristics : BT.709\r\nMatrix coefficients : BT.709\r\n\r\nAudio #1\r\nID : 2\r\nFormat : AAC\r\nFormat/Info : Advanced Audio Codec\r\nFormat profile : LC\r\nCodec ID : 40\r\nDuration : 1h 23mn\r\nBit rate mode : Variable\r\nBit rate : 82.2 Kbps\r\nChannel(s) : 2 channels\r\nChannel(s)_Original : 1 channel\r\nChannel positions : Front: C\r\nSampling rate : 48.0 KHz\r\nCompression mode : Lossy\r\nStream size : 49.3 MiB (5%)\r\nTitle : Mono / Mono\r\nEncoded date : UTC 2016-01-31 22:33:41\r\nTagged date : UTC 2016-01-31 22:33:41\r\n\r\nAudio #2\r\nID : 3\r\nFormat : AAC\r\nFormat/Info : Advanced Audio Codec\r\nFormat profile : LC\r\nCodec ID : 40\r\nDuration : 1h 23mn\r\nBit rate mode : Variable\r\nBit rate : 82.2 Kbps\r\nChannel(s) : 2 channels\r\nChannel(s)_Original : 1 channel\r\nChannel positions : Front: C\r\nSampling rate : 48.0 KHz\r\nCompression mode : Lossy\r\nStream size : 49.3 MiB (5%)\r\nTitle : Mono / Mono\r\nEncoded date : UTC 2016-01-31 22:33:41\r\nTagged date : UTC 2016-01-31 22:33:41\r\n\r\nText\r\nID : 4\r\nFormat : Timed Text\r\nMuxing mode : sbtl\r\nCodec ID : tx3g\r\nDuration : 1h 22mn\r\nBit rate mode : Variable\r\nBit rate : 47 bps\r\nStream size : 28.2 KiB (0%)\r\nLanguage : English\r\nEncoded date : UTC 2016-01-31 22:33:41\r\nTagged date : UTC 2016-01-31 22:33:41","torrent":{"xt":"urn:btih:48bf90199677cd2221bc4cfa4000602bedff4ff3","amp;dn":"Jean-Luc+Godard%27s+Vivre+sa+vie+%281962%29+-+1080p+BDRip+x265+HEVC+Re","amp;tr":["udp%3A%2F%2Ftracker.leechers-paradise.org%3A6969","udp%3A%2F%2Fzer0day.ch%3A1337","udp%3A%2F%2Fopen.demonii.com%3A1337","udp%3A%2F%2Ftracker.coppersurfer.tk%3A6969","udp%3A%2F%2Fexodus.desync.com%3A6969"],"infoHash":"48bf90199677cd2221bc4cfa4000602bedff4ff3","infoHashBuffer":{"type":"Buffer","data":[72,191,144,25,150,119,205,34,33,188,76,250,64,0,96,43,237,255,79,243]},"announce":[],"urlList":[]}}